<svg width="24" height="24" viewBox="0 0 24 24" fill="none" xmlns="http://www.w3.org/2000/svg">
<rect x="2" y="2" width="4" height="4" rx="0.25" stroke="url(#paint0_linear_458_1062)" stroke-width="2"/>
<rect x="10" y="2" width="4" height="4" rx="0.25" stroke="url(#paint1_linear_458_1062)" stroke-width="2"/>
<rect x="18" y="2" width="4" height="4" rx="0.25" stroke="url(#paint2_linear_458_1062)" stroke-width="2"/>
<rect x="2" y="10" width="4" height="4" rx="0.25" stroke="url(#paint3_linear_458_1062)" stroke-width="2"/>
<rect x="10" y="10" width="4" height="4" rx="0.25" stroke="url(#paint4_linear_458_1062)" stroke-width="2"/>
<rect x="18" y="10" width="4" height="4" rx="0.25" stroke="url(#paint5_linear_458_1062)" stroke-width="2"/>
<rect x="2" y="18" width="4" height="4" rx="0.25" stroke="url(#paint6_linear_458_1062)" stroke-width="2"/>
<rect x="10" y="18" width="4" height="4" rx="0.25" stroke="url(#paint7_linear_458_1062)" stroke-width="2"/>
<rect x="18" y="18" width="4" height="4" rx="0.25" stroke="url(#paint8_linear_458_1062)" stroke-width="2"/>
<defs>
<linearGradient id="paint0_linear_458_1062" x1="2" y1="4" x2="6" y2="4" gradientUnits="userSpaceOnUse">
<stop stop-color="#3AD666"/>
<stop offset="1" stop-color="#2EADE8"/>
</linearGradient>
<linearGradient id="paint1_linear_458_1062" x1="10" y1="4" x2="14" y2="4" gradientUnits="userSpaceOnUse">
<stop stop-color="#3AD666"/>
<stop offset="1" stop-color="#2EADE8"/>
</linearGradient>
<linearGradient id="paint2_linear_458_1062" x1="18" y1="4" x2="22" y2="4" gradientUnits="userSpaceOnUse">
<stop stop-color="#3AD666"/>
<stop offset="1" stop-color="#2EADE8"/>
</linearGradient>
<linearGradient id="paint3_linear_458_1062" x1="2" y1="12" x2="6" y2="12" gradientUnits="userSpaceOnUse">
<stop stop-color="#3AD666"/>
<stop offset="1" stop-color="#2EADE8"/>
</linearGradient>
<linearGradient id="paint4_linear_458_1062" x1="10" y1="12" x2="14" y2="12" gradientUnits="userSpaceOnUse">
<stop stop-color="#3AD666"/>
<stop offset="1" stop-color="#2EADE8"/>
</linearGradient>
<linearGradient id="paint5_linear_458_1062" x1="18" y1="12" x2="22" y2="12" gradientUnits="userSpaceOnUse">
<stop stop-color="#3AD666"/>
<stop offset="1" stop-color="#2EADE8"/>
</linearGradient>
<linearGradient id="paint6_linear_458_1062" x1="2" y1="20" x2="6" y2="20" gradientUnits="userSpaceOnUse">
<stop stop-color="#3AD666"/>
<stop offset="1" stop-color="#2EADE8"/>
</linearGradient>
<linearGradient id="paint7_linear_458_1062" x1="10" y1="20" x2="14" y2="20" gradientUnits="userSpaceOnUse">
<stop stop-color="#3AD666"/>
<stop offset="1" stop-color="#2EADE8"/>
</linearGradient>
<linearGradient id="paint8_linear_458_1062" x1="18" y1="20" x2="22" y2="20" gradientUnits="userSpaceOnUse">
<stop stop-color="#3AD666"/>
<stop offset="1" stop-color="#2EADE8"/>
</linearGradient>
</defs>
</svg>
