<svg width="24" height="24" viewBox="0 0 24 24" fill="none" xmlns="http://www.w3.org/2000/svg">
<path d="M15.1387 1C15.1387 1 16 2 15.1387 3C14.2773 4 15.1387 5 15.1387 5" stroke="white" stroke-width="2" stroke-linecap="round" stroke-linejoin="round"/>
<path d="M10.1387 1C10.1387 1 11 2 10.1387 3C9.27734 4 10.1387 5 10.1387 5" stroke="white" stroke-width="2" stroke-linecap="round" stroke-linejoin="round"/>
<path d="M5.13867 1C5.13867 1 6 2 5.13867 3C4.27734 4 5.13867 5 5.13867 5" stroke="white" stroke-width="2" stroke-linecap="round" stroke-linejoin="round"/>
<path d="M16.7937 11C19.1854 11 20.9791 11 21.577 12.1429C22.3792 13.6762 22.1749 16.1429 19.7833 17.2857C17.3916 18.4286 15 19 15 19" stroke="white" stroke-width="2" stroke-linecap="round" stroke-linejoin="round"/>
<path d="M3.93406 10C2.90556 10 2.04341 10.7804 2.01208 11.8085C1.98552 12.6798 1.99483 13.7076 2.12171 14.5128C2.55077 17.2355 4.7372 20.0327 6.61952 22H12.3805C14.2628 20.0327 16.4492 17.2355 16.8783 14.5128C17.0052 13.7076 17.0145 12.6798 16.9879 11.8085C16.9566 10.7804 16.0944 10 15.0659 10H3.93406Z" stroke="white" stroke-width="2"/>
</svg>
