<svg width="230" height="130" viewBox="0 0 230 130" fill="none" xmlns="http://www.w3.org/2000/svg">
<rect width="230" height="130" rx="18" fill="url(#paint0_linear_409_139)"/>
<mask id="mask0_409_139" style="mask-type:alpha" maskUnits="userSpaceOnUse" x="1" y="0" width="230" height="130">
<rect x="1" width="230" height="130" rx="18" fill="url(#paint1_linear_409_139)"/>
</mask>
<g mask="url(#mask0_409_139)">
<rect opacity="0.3" x="-29" y="70" width="150" height="150" rx="75" fill="url(#paint2_linear_409_139)"/>
<rect opacity="0.3" x="151" y="-70" width="100" height="100" rx="50" fill="url(#paint3_linear_409_139)"/>
<g opacity="0.1">
<path d="M-9.82422 119.065C-9.82422 119.065 48.8908 142.234 75.8588 112.312C102.827 82.3909 99.9815 77.9744 121.527 53.1833C143.073 28.3921 167.067 44.6857 187.028 61.4541C206.988 78.2226 227.316 65.6714 237.968 44.8595C248.62 24.0476 266 24.0476 266 24.0476" stroke="white" stroke-width="2.5"/>
<path d="M-34 175.696C-34 175.696 -33.3318 102.41 13.1526 93.1337C59.637 83.8573 79.0979 129.98 111.977 117.165C144.857 104.351 129.542 44.1767 176.074 22.5977C222.606 1.01867 266 54.0357 266 54.0357" stroke="white" stroke-width="2.5"/>
<path d="M-7.26013 152.985C-7.26013 152.985 5.0334 123.394 34.4018 118.887C63.7702 114.381 74.5489 139.169 117.007 129.799C159.464 120.429 149.097 82.7435 194.161 92.9729C239.225 103.202 248.784 5 248.784 5" stroke="white" stroke-width="2.5"/>
</g>
</g>
<defs>
<linearGradient id="paint0_linear_409_139" x1="115" y1="-54.209" x2="29.9882" y2="126.137" gradientUnits="userSpaceOnUse">
<stop stop-color="#2EADE8"/>
<stop offset="1" stop-color="#057BFF"/>
</linearGradient>
<linearGradient id="paint1_linear_409_139" x1="116" y1="-65" x2="4.62464" y2="132.049" gradientUnits="userSpaceOnUse">
<stop stop-color="#71E190"/>
<stop offset="1" stop-color="#3AD666"/>
</linearGradient>
<linearGradient id="paint2_linear_409_139" x1="46" y1="7.45117" x2="-79.0977" y2="157.451" gradientUnits="userSpaceOnUse">
<stop stop-color="#2EADE8"/>
<stop offset="1" stop-color="#057BFF"/>
</linearGradient>
<linearGradient id="paint3_linear_409_139" x1="201" y1="-111.699" x2="117.602" y2="-11.6992" gradientUnits="userSpaceOnUse">
<stop stop-color="#2EADE8"/>
<stop offset="1" stop-color="#057BFF"/>
</linearGradient>
</defs>
</svg>
