<svg width="48" height="48" viewBox="0 0 48 48" fill="none" xmlns="http://www.w3.org/2000/svg">
<rect width="48" height="48" rx="24" fill="url(#paint0_linear_16_867)"/>
<path d="M28.6156 15.6688L31.0229 15.9363C31.9526 16.0396 32.6686 16.7788 32.5476 17.7063C32.2857 19.7142 31.238 23.3806 27.3098 27.3088C23.3816 31.237 19.7147 32.2852 17.7065 32.5475C16.7788 32.6686 16.0394 31.9525 15.936 31.0227L15.6686 28.6157C15.5805 27.8231 15.9718 27.0539 16.6643 26.6583L18.3232 25.7106C19.1063 25.2633 20.0918 25.3953 20.7295 26.033L20.9544 26.2579C21.4273 26.7308 22.1097 26.9306 22.7059 26.6278C23.2918 26.3302 24.0867 25.8179 24.9522 24.9524C25.8177 24.0869 26.3301 23.292 26.6276 22.7061C26.9304 22.1099 26.7306 21.4274 26.2577 20.9546L26.0328 20.7297C25.3951 20.092 25.2631 19.1064 25.7104 18.3234L26.6581 16.6645C27.0537 15.972 27.8229 15.5807 28.6156 15.6688Z" stroke="white" stroke-width="2" stroke-linecap="round" stroke-linejoin="round"/>
<defs>
<linearGradient id="paint0_linear_16_867" x1="-4.47034e-08" y1="24" x2="48" y2="24" gradientUnits="userSpaceOnUse">
<stop stop-color="#3AD666"/>
<stop offset="1" stop-color="#2EADE8"/>
</linearGradient>
</defs>
</svg>
