<svg width="230" height="130" viewBox="0 0 216 120" fill="none" xmlns="http://www.w3.org/2000/svg">
<rect width="216" height="120" rx="18" fill="url(#paint0_linear_701_395)"/>
<mask id="mask0_701_395" style="mask-type:alpha" maskUnits="userSpaceOnUse" x="0" y="0" width="216" height="120">
<rect width="216" height="120" rx="18" fill="url(#paint1_linear_701_395)"/>
</mask>
<g mask="url(#mask0_701_395)">
<rect opacity="0.3" x="-30" y="70" width="150" height="150" rx="75" fill="url(#paint2_linear_701_395)"/>
<rect opacity="0.3" x="150" y="-70" width="100" height="100" rx="50" fill="url(#paint3_linear_701_395)"/>
<g opacity="0.1">
<path d="M-10.8242 119.065C-10.8242 119.065 47.8908 142.234 74.8588 112.312C101.827 82.3909 98.9815 77.9744 120.527 53.1833C142.073 28.3921 166.067 44.6857 186.028 61.4541C205.988 78.2226 226.316 65.6714 236.968 44.8595C247.62 24.0476 265 24.0476 265 24.0476" stroke="white" stroke-width="2.5"/>
<path d="M-35 175.696C-35 175.696 -34.3318 102.41 12.1526 93.1337C58.637 83.8573 78.0979 129.98 110.977 117.165C143.857 104.351 128.542 44.1767 175.074 22.5977C221.606 1.01867 265 54.0357 265 54.0357" stroke="white" stroke-width="2.5"/>
<path d="M-8.26013 152.985C-8.26013 152.985 4.0334 123.394 33.4018 118.887C62.7702 114.381 73.5489 139.169 116.007 129.799C158.464 120.429 148.097 82.7435 193.161 92.9729C238.225 103.202 247.784 5 247.784 5" stroke="white" stroke-width="2.5"/>
</g>
</g>
<defs>
<linearGradient id="paint0_linear_701_395" x1="108" y1="-60" x2="6.11321" y2="123.396" gradientUnits="userSpaceOnUse">
<stop stop-color="#71E190"/>
<stop offset="1" stop-color="#3AD666"/>
</linearGradient>
<linearGradient id="paint1_linear_701_395" x1="108" y1="-60" x2="6.11321" y2="123.396" gradientUnits="userSpaceOnUse">
<stop stop-color="#71E190"/>
<stop offset="1" stop-color="#3AD666"/>
</linearGradient>
<linearGradient id="paint2_linear_701_395" x1="-30" y1="145" x2="120" y2="145" gradientUnits="userSpaceOnUse">
<stop stop-color="#3AD666"/>
<stop offset="1" stop-color="#2EADE8"/>
</linearGradient>
<linearGradient id="paint3_linear_701_395" x1="150" y1="-20" x2="250" y2="-20" gradientUnits="userSpaceOnUse">
<stop stop-color="#3AD666"/>
<stop offset="1" stop-color="#2EADE8"/>
</linearGradient>
</defs>
</svg>
